<svg xmlns="http://www.w3.org/2000/svg" xmlns:xlink="http://www.w3.org/1999/xlink" viewBox="0 0 145.23 94.94"><defs><style>.a{fill:none;}.b{clip-path:url(#a);}.c{fill:#0f9ad6;}.d{fill:#ebf6fa;}.e{fill:#129cd6;}.f{fill:#109bd6;}.g{fill:#139cd6;}.h{fill:#31a8dc;}</style><clipPath id="a" transform="translate(-52 -25.08)"><rect class="a" x="47.33" width="154" height="144" rx="72" ry="72"/></clipPath></defs><title>salesforce</title><g class="b"><path class="c" d="M81.48,104.33c-14,1.06-24.11-4.31-28.23-15.74-3.12-8.67-.68-18,10.69-26.79-1.67-4.69-2.78-9.67-1.58-14.64,2.74-11.37,10.08-18.55,21.4-21.21,9.23-2.17,17.8-.31,25.18,6,1.28,1.09,2.64,2.09,4.16,3.29a25,25,0,0,1,21.22-6.88c8,1,14.68,4.67,18.89,12,4.89-1.34,9.64-2.53,14.62-2.19a34.16,34.16,0,0,1,20.27,8.44c10.29,8.6,11.68,25.43,5.24,35.62-5.41,8.55-13.4,13.36-23.49,14.57a13.4,13.4,0,0,1-2.21.1c-4.23-.2-7.6,0-11.2,3.81-6.65,7-15.59,8.17-24.88,5.29l-1.63-.51c-5,10.17-13.68,14.72-24.44,14.55S86.34,114.66,81.48,104.33Zm14-29.2c.59-1.82.21-3.67.3-5.48.31-6.84-3.69-6.86-9.1-5.73-1.22.25-1.38,1.24-.47,2.2,5.35-.86,5.52-.82,6.71,1.67-1.83.3-3.68.14-5.41.73a3.61,3.61,0,0,0-2.67,3.88,3.31,3.31,0,0,0,3.1,3.47A12.69,12.69,0,0,0,95.47,75.12Zm29.37,5.77c4.06.83,5.86-.12,6.51-4.1.61-3.73,1.93-7.21,2.9-10.74,2.08-.51,2.08-.51,2.82-2-.53-.94-2,0-2.33-1.11-.73-3.31,4.36-1.1,3.89-4.25a5.07,5.07,0,0,0-6.41,2.11,24.76,24.76,0,0,1-3.53,4.16c2,.83,2.14,2.07,1.62,3.81-.62,2.11-.75,4.35-1.19,6.52-.39,1.91-.58,4-3.4,4C124.74,79.21,124.78,80.13,124.84,80.89Zm-10.38-7.27c-6.46.57-6.92.38-7.73-3.11,2.75-.57,5.61.26,8.3-.49.25-4.31-1-6.23-4.17-6.57-4.12-.45-6.43,1.22-7.11,5.13-.6,3.47,1.08,6.46,4.09,7.3C111,76.76,113.71,75.95,114.46,73.62Zm35-4c0-4.18-2-6.2-5.94-6.23-3.81,0-6,2.23-6.08,6.19-.06,4.12,2.26,6.51,6.23,6.44S149.47,73.84,149.44,69.66ZM182,75.11c-.14-2.63-1.92-1.27-3-1.25-3.62.09-4.2-.23-4.83-3.24,2.68-.89,5.58.33,8.22-.71.43-2.48.06-4.68-2.2-5.84a6.46,6.46,0,0,0-6.65.23C171,66,171,68.58,171.22,71.21a4.77,4.77,0,0,0,3.73,4.49C177.31,76.32,179.76,76.55,182,75.11Zm-99.68-9c.45-.71.72-1.29.15-1.8-1.46-1.3-6.17-1.24-7.66.06a3.36,3.36,0,0,0,1,5.69c1.13.45,2.37.63,3.51,1.06s1.71,1,1.28,1.89c-2.24,2.49-5.14-1.17-7.45,1.11,1.74,2,3.74,1.88,5.68,2,2.21.09,3.94-.77,4.5-3,.62-2.46-1.14-3.48-3.06-4.32-1.24-.54-3-.45-3.35-2.5C78.67,64.81,80.59,66.1,82.3,66.13Zm34.27,8c2.54,2.4,5.12,2.2,7.63,1.76A3.36,3.36,0,0,0,127,72.82a3.17,3.17,0,0,0-2.06-3.52,30.4,30.4,0,0,0-3.45-1.17c-.84-.27-1.65-.53-1.58-1.89,1.91-1.64,4.26.06,6.29-.25.14-.72.4-1.23-.06-1.61-1.47-1.23-5.76-1.4-7.33-.27a3.37,3.37,0,0,0-1.13,4.54c.68,1.41,2.23,1.88,3.67,2.18s2.73.28,3.06,2C122.33,75.79,119.22,72.14,116.56,74.11Zm53.64.84c-.84-1.94-2.27-1-3.35-1.08-3.12-.23-4.67-2.16-4-5.17.49-2.34,1.88-3.23,4.24-3.08,1.09.07,2.92.84,2.78-1.55-4.58-1.3-7.24-.68-8.88,2-1.41,2.32-1,6.46.74,8.29C163.66,76.4,167,76.65,170.2,74.95Zm-68.8.43c0-4.93,0-9.84,0-14.74,0-2.47-1.24-2.49-3-1.77V75.41C99.29,76.09,100.08,76,101.4,75.38Zm52.65.26a14,14,0,0,0,.22-5c-.17-2.71.55-4.59,3.57-4.83,1.24-.1,1.78-.66,1.48-2-2.44-.71-4.94.64-7.8-.35,0,3.91,0,7.44,0,11C151.58,75.92,152.6,76.12,154,75.65Z" transform="translate(-52 -25.08)"/><path class="d" d="M154,75.65c-1.44.47-2.47.27-2.5-1.27-.07-3.53,0-7.06,0-11,2.86,1,5.35-.36,7.8.35.29,1.39-.24,1.95-1.48,2-3,.24-3.74,2.12-3.57,4.83A14,14,0,0,1,154,75.65Z" transform="translate(-52 -25.08)"/><path class="e" d="M92.76,70.25a4.55,4.55,0,0,1-.05,3.49c-1.63.18-3.31.69-4.61-.9a1.3,1.3,0,0,1,.05-1.67C89.36,69.76,91,70.08,92.76,70.25Z" transform="translate(-52 -25.08)"/><path class="f" d="M106.66,68.32c.35-2,1.21-2.73,2.77-2.72s2.84.35,3.15,2.42C110.71,68.86,108.86,68.47,106.66,68.32Z" transform="translate(-52 -25.08)"/><path class="g" d="M140.24,69.5c.07-2.86.94-3.9,3.22-3.87s3.46,1.41,3.43,4.16-1.22,4.13-3.52,4.08S140.16,72.51,140.24,69.5Z" transform="translate(-52 -25.08)"/><path class="h" d="M180,68.43a16.87,16.87,0,0,1-5.71-.15c-.35-1.77.52-2.61,2.07-2.68C178.11,65.52,179.8,65.74,180,68.43Z" transform="translate(-52 -25.08)"/></g></svg>